<?xml version="1.0" encoding="iso-8859-1"?>
<!-- Generator: Adobe Illustrator 21.1.0, SVG Export Plug-In . SVG Version: 6.00 Build 0)  -->
<svg version="1.1" id="Layer_1" xmlns="http://www.w3.org/2000/svg" xmlns:xlink="http://www.w3.org/1999/xlink" x="0px" y="0px"
	 viewBox="0 0 1500 500" style="enable-background:new 0 0 1500 500;" xml:space="preserve">
<g>
	<path style="fill:#ED1C24;" d="M561.596,92.713l67.521,167.282h-40.959L575.79,226.54h-63.669l-12.369,33.456h-40.958
		l67.521-167.282h35.281V92.713z M562.812,193.083l-18.655-48.664h-0.405l-18.655,48.664H562.812z"/>
	<path style="fill:#ED1C24;" d="M696.638,92.713V226.54h57.586v33.456h-95.708V92.713H696.638z"/>
	<path style="fill:#ED1C24;" d="M834.111,92.713v167.282h-38.12V92.713H834.111z"/>
	<path d="M861.081,126.17V92.713h117.604v33.457h-39.742v133.825h-38.12V126.17H861.081z"/>
	<path d="M1111.091,92.713v33.457h-57.586v33.253h55.152v33.457h-55.152v33.66h57.586v33.456h-95.706V92.713H1111.091z"/>
	<path d="M1244.914,225.525c5.811,0,11.456-0.877,16.931-2.636c5.475-1.755,9.495-3.447,12.064-5.069l3.853-2.636l16.222,32.442
		c-0.542,0.406-1.286,0.947-2.23,1.622c-0.947,0.679-3.143,1.926-6.59,3.751c-3.447,1.824-7.132,3.415-11.051,4.765
		c-3.923,1.353-9.058,2.566-15.41,3.649c-6.355,1.081-12.911,1.622-19.669,1.622c-15.546,0-30.281-3.817-44.203-11.456
		c-13.924-7.634-25.143-18.147-33.659-31.53c-8.516-13.382-12.773-27.845-12.773-43.392c0-11.761,2.499-23.046,7.502-33.862
		c4.999-10.813,11.659-20.074,19.973-27.779s18.011-13.854,29.097-18.452c11.083-4.594,22.438-6.894,34.064-6.894
		c10.813,0,20.784,1.286,29.908,3.853c9.125,2.569,15.578,5.139,19.364,7.705l5.678,3.853l-16.222,32.443
		c-0.947-0.811-2.366-1.79-4.258-2.94c-1.895-1.147-5.678-2.667-11.354-4.562c-5.678-1.892-11.425-2.839-17.235-2.839
		c-9.194,0-17.438,1.489-24.737,4.461c-7.3,2.975-13.079,6.894-17.337,11.76c-4.258,4.867-7.502,10.107-9.732,15.714
		c-2.23,5.611-3.346,11.323-3.346,17.134c0,12.708,4.765,24.098,14.295,34.167C1213.586,220.491,1227.203,225.525,1244.914,225.525z
		"/>
	<path d="M1369.613,192.88v67.115h-38.12V92.713h38.12v66.71h53.936v-66.71h38.12v167.282h-38.12V192.88H1369.613z"/>
</g>
<g>
	<path style="stroke:#000000;stroke-miterlimit:10;" d="M534.212,355.416c1.12-1.492,2.408-2.521,3.865-3.08
		c1.456-0.561,2.818-0.672,4.089-0.336c1.269,0.336,2.353,1.103,3.249,2.296c0.896,1.196,1.381,2.801,1.457,4.817
		c0.073,1.12-0.392,3.137-1.4,6.05c-1.008,2.912-2.223,6.721-3.641,11.426c-0.075,0.3-0.207,0.673-0.392,1.121
		c-0.188,0.447-0.448,1.195-0.784,2.24c-0.336,1.047-0.823,2.503-1.457,4.369c-0.635,1.867-1.512,4.369-2.632,7.506
		c-0.523,1.568-1.176,3.436-1.96,5.601c-0.784,2.167-1.775,4.089-2.969,5.77c-1.196,1.681-2.615,2.838-4.257,3.473
		c-1.644,0.634-3.623,0.168-5.937-1.4c-0.748-0.523-1.568-1.586-2.465-3.192c-0.896-1.605-1.755-3.342-2.577-5.209
		c-0.822-1.866-1.551-3.641-2.184-5.321c-0.636-1.681-1.064-2.781-1.289-3.305c-0.523-1.194-1.12-2.521-1.792-3.978
		c-0.672-1.456-1.308-2.93-1.904-4.425l-0.672,1.681c-0.971,2.465-1.943,4.929-2.913,7.394c-0.971,2.465-1.943,4.893-2.913,7.281
		c-0.523,1.271-1.008,2.652-1.456,4.146c-0.448,1.495-1.083,2.801-1.905,3.921c-0.672,0.97-1.512,1.661-2.521,2.072
		c-1.008,0.409-2.036,0.578-3.081,0.504c-1.047-0.075-2.036-0.355-2.969-0.84c-0.935-0.486-1.736-1.177-2.409-2.072
		c-1.046-1.493-1.868-3.211-2.464-5.153c-0.599-1.941-1.196-3.733-1.792-5.377c-0.823-2.314-1.568-4.687-2.241-7.114
		c-0.672-2.426-1.383-4.761-2.128-7.001c-0.375-1.194-0.859-2.763-1.456-4.705c-0.599-1.941-1.176-3.938-1.736-5.994
		c-0.561-2.053-1.008-4.05-1.345-5.993c-0.336-1.941-0.467-3.546-0.392-4.817c0.074-1.269,0.504-2.408,1.289-3.416
		c0.784-1.009,1.736-1.754,2.856-2.241c1.121-0.484,2.297-0.652,3.529-0.504c1.232,0.15,2.333,0.711,3.305,1.681
		c1.418,1.495,2.277,3.081,2.577,4.761c0.298,1.681,0.634,3.492,1.008,5.434c0.597,2.988,1.289,5.938,2.073,8.85
		c0.784,2.913,1.624,5.825,2.521,8.738c0.297-0.672,0.633-1.493,1.008-2.465c0.373-0.97,0.97-2.426,1.792-4.369
		c0.672-1.642,1.325-3.248,1.96-4.816c0.634-1.568,1.25-3.137,1.849-4.705c0.448-1.12,0.896-2.222,1.344-3.305
		c0.448-1.082,0.896-2.146,1.344-3.193c0.522-1.12,1.289-2.033,2.297-2.744c1.008-0.709,2.109-1.157,3.305-1.345
		c1.194-0.186,2.353-0.073,3.473,0.336c1.12,0.412,2.017,1.177,2.688,2.297c0.97,1.495,1.717,3.156,2.241,4.985
		c0.521,1.831,1.082,3.567,1.68,5.209c1.045,2.688,2.073,5.396,3.081,8.122c1.008,2.727,2.072,5.396,3.192,8.01
		c1.642-4.481,3.098-8.979,4.369-13.499c1.269-4.518,2.65-9.019,4.145-13.499L534.212,355.416z"/>
	<path style="stroke:#000000;stroke-miterlimit:10;" d="M603.81,388.8c1.792-0.448,3.378-0.465,4.761-0.056
		c1.381,0.411,2.445,1.103,3.192,2.072c0.746,0.972,1.082,2.167,1.008,3.585c-0.075,1.42-0.71,2.913-1.904,4.481
		c-0.972,1.271-2.316,2.353-4.033,3.248c-1.719,0.896-3.324,1.607-4.817,2.129c-3.66,1.344-7.133,2.277-10.418,2.801
		c-3.287,0.521-6.368,0.521-9.242,0c-2.875-0.523-5.564-1.607-8.065-3.249c-2.503-1.642-4.836-3.958-7.002-6.945
		c-1.495-2.017-2.596-4.313-3.305-6.89c-0.71-2.577-1.103-5.209-1.176-7.898c-0.075-2.688,0.149-5.338,0.672-7.953
		c0.521-2.613,1.269-4.966,2.24-7.058c1.269-2.613,3.286-5.003,6.049-7.17c2.762-2.165,5.826-3.883,9.187-5.153
		c3.36-1.269,6.795-1.997,10.306-2.185c3.51-0.186,6.609,0.355,9.298,1.625c2.24,1.046,4.162,2.559,5.769,4.537
		c1.605,1.979,2.706,4.127,3.305,6.441c0.597,2.315,0.653,4.648,0.168,7.001c-0.486,2.353-1.699,4.501-3.641,6.441
		c-1.868,1.868-3.921,3.38-6.162,4.537c-2.24,1.159-4.556,2.167-6.945,3.025c-2.391,0.859-4.836,1.587-7.338,2.184
		c-2.503,0.599-4.912,1.271-7.226,2.017c1.568,1.793,3.361,2.933,5.377,3.417c2.016,0.486,4.125,0.579,6.329,0.28
		c2.202-0.298,4.425-0.914,6.666-1.849c2.241-0.933,4.331-1.96,6.273-3.081L603.81,388.8z M581.18,369.531
		c-1.719,0.972-2.988,2.185-3.809,3.642c-0.823,1.456-1.419,3.492-1.792,6.105c1.941-0.598,4.125-1.232,6.554-1.905
		c2.426-0.672,4.722-1.381,6.889-2.128c2.166-0.746,3.995-1.568,5.489-2.465c1.493-0.896,2.241-1.866,2.241-2.912
		c0-0.598-0.095-1.177-0.28-1.736c-0.187-0.561-0.579-0.953-1.176-1.177c-2.091-0.746-4.257-0.896-6.497-0.448
		c-2.241,0.448-4.108,1.084-5.602,1.904L581.18,369.531z"/>
	<path style="stroke:#000000;stroke-miterlimit:10;" d="M653.578,406.725c-2.167,0.073-4.24-0.076-6.218-0.448
		c-1.979-0.375-3.94-1.009-5.881-1.904c-0.971,0.521-1.923,0.784-2.856,0.784c-0.935,0-1.792-0.151-2.577-0.448
		c-0.784-0.3-1.457-0.655-2.017-1.064s-0.952-0.729-1.176-0.952c-0.823-1.194-1.308-2.538-1.456-4.033
		c-0.151-1.493,0.336-2.912,1.456-4.257V336.82c0-1.717,0.597-3.154,1.792-4.313c1.194-1.156,2.577-1.885,4.145-2.185
		c1.568-0.297,3.081-0.036,4.537,0.784c1.456,0.823,2.445,2.316,2.969,4.481c0.297,1.345,0.541,2.671,0.728,3.977
		c0.186,1.308,0.297,2.82,0.336,4.537c0.037,1.719,0.037,3.697,0,5.938c-0.039,2.24-0.131,5.005-0.28,8.29
		c0.672-0.373,1.362-0.729,2.072-1.064c0.709-0.336,1.437-0.689,2.185-1.064c2.09-0.97,4.331-1.568,6.722-1.792
		c2.389-0.224,4.723-0.093,7.001,0.393c2.277,0.486,4.406,1.383,6.386,2.688c1.979,1.308,3.603,3.007,4.873,5.097
		c1.793,2.988,3.006,6.48,3.641,10.475c0.634,3.996,0.634,7.954,0,11.875c-0.635,3.921-1.942,7.562-3.921,10.922
		c-1.979,3.361-4.761,5.864-8.346,7.506c-2.24,1.045-4.537,1.849-6.89,2.408C658.451,406.332,656.042,406.648,653.578,406.725z
		 M646.521,378.046v13.442c0.148,0.151,0.297,0.263,0.448,0.337c0.149,0.075,0.298,0.187,0.448,0.336
		c6.722,2.24,12.547,0.71,17.476-4.594c1.121-2.985,1.661-5.806,1.625-8.457c-0.039-2.65-0.543-5.507-1.513-8.57
		c-0.374-0.896-0.99-1.474-1.849-1.736c-0.859-0.261-1.624-0.578-2.296-0.952c-1.196-0.225-2.484,0-3.865,0.672
		c-1.383,0.672-2.708,1.513-3.977,2.521c-1.271,1.009-2.428,2.111-3.473,3.305c-1.047,1.195-1.868,2.204-2.464,3.024
		L646.521,378.046z"/>
	<path style="stroke:#000000;stroke-miterlimit:10;" d="M699.2,396.306c-0.448-1.269-0.636-2.521-0.561-3.753
		c0.074-1.232,0.393-2.353,0.952-3.36c0.561-1.009,1.362-1.793,2.409-2.353c1.045-0.561,2.313-0.765,3.809-0.616
		c0.821,0.075,1.568,0.299,2.24,0.672c0.673,0.375,1.289,0.823,1.849,1.345c0.561,0.523,1.12,1.083,1.681,1.68
		c0.56,0.599,1.138,1.121,1.736,1.568c1.269,0.972,2.613,1.681,4.033,2.129c1.418,0.448,2.912,0.784,4.48,1.008
		c1.045,0,1.886-0.261,2.521-0.784c0.634-0.521,1.064-1.156,1.289-1.904c0.224-0.745,0.279-1.549,0.168-2.408
		c-0.112-0.857-0.393-1.549-0.841-2.072c-1.271-1.27-2.819-2.09-4.648-2.465c-1.831-0.373-3.529-0.821-5.098-1.345
		c-2.24-0.745-4.444-1.697-6.609-2.856c-2.167-1.157-3.921-2.744-5.266-4.761c-1.419-2.09-2.26-4.313-2.521-6.666
		c-0.263-2.353-0.075-4.648,0.561-6.89c0.634-2.24,1.698-4.293,3.192-6.161c1.493-1.866,3.286-3.397,5.378-4.593
		c1.568-0.896,3.285-1.474,5.152-1.736c1.866-0.261,3.753-0.317,5.657-0.168c1.905,0.15,3.79,0.504,5.658,1.064
		c1.865,0.56,3.584,1.176,5.152,1.848c1.793,0.823,3.137,1.98,4.033,3.473c0.896,1.495,1.325,3.008,1.288,4.537
		c-0.038,1.532-0.56,2.857-1.568,3.978c-1.008,1.12-2.483,1.68-4.425,1.68c-1.195,0-2.279-0.204-3.249-0.615
		c-0.971-0.41-1.979-0.802-3.024-1.177c-1.344-0.521-2.801-0.877-4.369-1.064c-1.568-0.186-2.839-0.093-3.809,0.28
		c-0.3,0.075-0.636,0.318-1.008,0.729c-0.375,0.411-0.655,0.915-0.841,1.512c-0.188,0.599-0.224,1.196-0.112,1.793
		c0.112,0.599,0.505,1.083,1.177,1.456c1.792,0.972,3.697,1.719,5.713,2.24c2.017,0.523,3.995,1.12,5.938,1.793
		c1.941,0.672,3.753,1.531,5.434,2.576c1.681,1.047,3.081,2.54,4.201,4.481c1.642,2.839,2.481,5.808,2.521,8.906
		c0.036,3.1-0.58,5.993-1.849,8.682c-1.271,2.688-3.137,4.985-5.602,6.89c-2.464,1.904-5.34,3.042-8.626,3.417
		c-2.315,0.224-4.593,0.093-6.833-0.393c-2.241-0.486-4.408-1.271-6.498-2.353c-2.092-1.083-4.032-2.37-5.825-3.865
		c-1.792-1.492-3.36-3.061-4.705-4.705L699.2,396.306z"/>
	<path style="stroke:#000000;stroke-miterlimit:10;" d="M759.611,336.933c0.298-2.763,1.25-4.798,2.856-6.105
		c1.605-1.306,3.306-1.941,5.098-1.904c1.792,0.038,3.453,0.728,4.985,2.072c1.529,1.344,2.333,3.248,2.408,5.713
		c0.148,2.54-0.504,4.5-1.96,5.882c-1.457,1.383-3.119,2.167-4.985,2.353c-1.868,0.187-3.623-0.317-5.266-1.513
		c-1.644-1.193-2.651-3.099-3.024-5.713L759.611,336.933z M774.399,400.675c-0.151,1.495-0.673,2.82-1.568,3.977
		c-0.896,1.157-1.924,1.997-3.081,2.521c-1.159,0.522-2.408,0.634-3.753,0.337c-1.345-0.3-2.54-1.121-3.585-2.465
		c-0.599-0.748-1.027-1.586-1.288-2.521c-0.263-0.934-0.431-1.904-0.504-2.913c-0.075-1.008-0.095-2.017-0.057-3.024
		c0.037-1.008,0.057-1.922,0.057-2.745c-0.075-4.405-0.095-8.774-0.057-13.106c0.037-4.331,0.018-8.699-0.056-13.107
		c0-1.792-0.112-3.602-0.336-5.433c-0.225-1.829-0.112-3.642,0.336-5.434c0.373-1.345,1.025-2.501,1.96-3.473
		c0.934-0.97,1.979-1.642,3.137-2.017c1.157-0.373,2.353-0.409,3.585-0.112c1.232,0.3,2.297,1.084,3.193,2.353
		c1.193,1.495,1.792,2.969,1.792,4.426c0,1.456,0,3.23,0,5.32c0,2.54,0,5.08,0,7.618c0,2.54,0.037,5.041,0.112,7.506
		c0.073,3.585,0.112,7.17,0.112,10.754c0,3.585,0,7.17,0,10.755v0.783H774.399z"/>
	<path style="stroke:#000000;stroke-miterlimit:10;" d="M799.299,366.507c-1.495-0.373-2.783-1.008-3.865-1.904
		c-1.083-0.896-1.831-1.941-2.24-3.137c-0.411-1.193-0.411-2.426,0-3.697c0.409-1.269,1.325-2.426,2.744-3.473
		c1.194-0.896,2.538-1.344,4.033-1.344c1.493,0,2.949,0,4.369,0c0-0.521-0.039-1.661-0.112-3.417
		c-0.075-1.754-0.095-3.678-0.056-5.77c0.036-2.09,0.168-4.089,0.392-5.993c0.225-1.904,0.634-3.229,1.232-3.977
		c1.493-2.091,3.342-3.081,5.545-2.969c2.202,0.111,4.014,1.176,5.434,3.192c0.298,0.375,0.578,0.822,0.84,1.345
		s0.393,1.008,0.393,1.456c0.073,2.688,0.093,5.377,0.056,8.065c-0.038,2.688-0.056,5.378-0.056,8.066h8.85
		c1.345,0,2.502,0.448,3.474,1.344c0.97,0.896,1.661,1.943,2.072,3.137c0.409,1.196,0.521,2.428,0.336,3.697
		c-0.188,1.271-0.767,2.315-1.736,3.137c-1.719,1.42-3.716,2.167-5.993,2.24c-2.279,0.075-4.612,0.112-7.002,0.112
		c0,4.108-0.02,8.216-0.056,12.322c-0.039,4.108-0.02,8.217,0.056,12.323c0,1.792,0.093,3.623,0.28,5.489
		c0.186,1.868,0.056,3.66-0.393,5.377c-0.374,1.345-1.008,2.409-1.904,3.193s-1.904,1.269-3.024,1.456
		c-1.12,0.186-2.279,0.112-3.473-0.225c-1.196-0.336-2.316-0.952-3.361-1.848c-0.523-0.523-0.915-1.418-1.176-2.688
		c-0.263-1.27-0.431-2.613-0.504-4.033c-0.076-1.642-0.076-3.397,0-5.266c0-1.493,0-3.434,0-5.825c0-2.389-0.02-4.873-0.057-7.449
		c-0.038-2.577-0.056-5.022-0.056-7.338c0-2.314,0-4.146,0-5.489L799.299,366.507z"/>
	<path style="stroke:#000000;stroke-miterlimit:10;" d="M886.373,388.8c1.792-0.448,3.378-0.465,4.761-0.056
		c1.382,0.411,2.445,1.103,3.193,2.072c0.745,0.972,1.081,2.167,1.008,3.585c-0.075,1.42-0.711,2.913-1.904,4.481
		c-0.972,1.271-2.315,2.353-4.033,3.248c-1.719,0.896-3.324,1.607-4.816,2.129c-3.66,1.344-7.134,2.277-10.419,2.801
		c-3.287,0.521-6.368,0.521-9.242,0c-2.876-0.523-5.564-1.607-8.065-3.249c-2.503-1.642-4.837-3.958-7.002-6.945
		c-1.495-2.017-2.596-4.313-3.305-6.89c-0.711-2.577-1.103-5.209-1.176-7.898c-0.076-2.688,0.148-5.338,0.672-7.953
		c0.521-2.613,1.269-4.966,2.24-7.058c1.27-2.613,3.285-5.003,6.05-7.17c2.762-2.165,5.825-3.883,9.186-5.153
		c3.361-1.269,6.795-1.997,10.307-2.185c3.51-0.186,6.609,0.355,9.298,1.625c2.241,1.046,4.163,2.559,5.77,4.537
		c1.605,1.979,2.706,4.127,3.305,6.441c0.597,2.315,0.653,4.648,0.168,7.001c-0.486,2.353-1.699,4.501-3.641,6.441
		c-1.868,1.868-3.921,3.38-6.161,4.537c-2.241,1.159-4.557,2.167-6.946,3.025c-2.391,0.859-4.836,1.587-7.337,2.184
		c-2.504,0.599-4.912,1.271-7.226,2.017c1.568,1.793,3.36,2.933,5.377,3.417c2.017,0.486,4.126,0.579,6.329,0.28
		c2.202-0.298,4.425-0.914,6.666-1.849c2.24-0.933,4.33-1.96,6.273-3.081L886.373,388.8z M863.744,369.531
		c-1.719,0.972-2.988,2.185-3.81,3.642c-0.822,1.456-1.419,3.492-1.792,6.105c1.941-0.598,4.126-1.232,6.554-1.905
		c2.426-0.672,4.723-1.381,6.89-2.128c2.165-0.746,3.994-1.568,5.489-2.465c1.493-0.896,2.24-1.866,2.24-2.912
		c0-0.598-0.095-1.177-0.28-1.736c-0.188-0.561-0.579-0.953-1.176-1.177c-2.092-0.746-4.257-0.896-6.498-0.448
		c-2.24,0.448-4.108,1.084-5.601,1.904L863.744,369.531z"/>
	<path style="stroke:#000000;stroke-miterlimit:10;" d="M963.729,396.306c-0.448-1.269-0.636-2.521-0.561-3.753
		c0.074-1.232,0.393-2.353,0.952-3.36c0.561-1.009,1.362-1.793,2.409-2.353c1.045-0.561,2.313-0.765,3.809-0.616
		c0.821,0.075,1.568,0.299,2.24,0.672c0.673,0.375,1.289,0.823,1.849,1.345c0.561,0.523,1.12,1.083,1.681,1.68
		c0.56,0.599,1.138,1.121,1.736,1.568c1.269,0.972,2.613,1.681,4.033,2.129c1.418,0.448,2.912,0.784,4.48,1.008
		c1.045,0,1.886-0.261,2.521-0.784c0.634-0.521,1.064-1.156,1.289-1.904c0.224-0.745,0.279-1.549,0.168-2.408
		c-0.112-0.857-0.393-1.549-0.841-2.072c-1.271-1.27-2.819-2.09-4.648-2.465c-1.831-0.373-3.529-0.821-5.098-1.345
		c-2.24-0.745-4.444-1.697-6.609-2.856c-2.167-1.157-3.921-2.744-5.266-4.761c-1.419-2.09-2.26-4.313-2.521-6.666
		c-0.263-2.353-0.075-4.648,0.561-6.89c0.634-2.24,1.698-4.293,3.192-6.161c1.493-1.866,3.286-3.397,5.378-4.593
		c1.568-0.896,3.285-1.474,5.152-1.736c1.866-0.261,3.753-0.317,5.657-0.168c1.905,0.15,3.79,0.504,5.658,1.064
		c1.865,0.56,3.584,1.176,5.152,1.848c1.793,0.823,3.137,1.98,4.033,3.473c0.896,1.495,1.325,3.008,1.288,4.537
		c-0.038,1.532-0.56,2.857-1.568,3.978c-1.008,1.12-2.483,1.68-4.425,1.68c-1.195,0-2.279-0.204-3.249-0.615
		c-0.971-0.41-1.979-0.802-3.024-1.177c-1.344-0.521-2.801-0.877-4.369-1.064c-1.568-0.186-2.839-0.093-3.809,0.28
		c-0.3,0.075-0.636,0.318-1.008,0.729c-0.375,0.411-0.655,0.915-0.841,1.512c-0.188,0.599-0.224,1.196-0.112,1.793
		c0.112,0.599,0.505,1.083,1.177,1.456c1.792,0.972,3.697,1.719,5.713,2.24c2.017,0.523,3.995,1.12,5.938,1.793
		c1.941,0.672,3.753,1.531,5.434,2.576c1.681,1.047,3.081,2.54,4.201,4.481c1.642,2.839,2.481,5.808,2.521,8.906
		c0.036,3.1-0.58,5.993-1.849,8.682c-1.271,2.688-3.137,4.985-5.602,6.89c-2.464,1.904-5.34,3.042-8.626,3.417
		c-2.315,0.224-4.593,0.093-6.833-0.393c-2.241-0.486-4.408-1.271-6.498-2.353c-2.092-1.083-4.032-2.37-5.825-3.865
		c-1.792-1.492-3.36-3.061-4.705-4.705L963.729,396.306z"/>
	<path style="stroke:#000000;stroke-miterlimit:10;" d="M1021.898,377.037c0.521-2.165,1.25-4.293,2.185-6.385
		c0.933-2.091,2.072-4.089,3.417-5.994c1.344-1.904,2.856-3.641,4.537-5.209c1.68-1.568,3.49-2.837,5.433-3.809
		c3.435-1.793,6.89-2.706,10.362-2.745c3.473-0.036,6.702,0.655,9.69,2.073c2.986,1.419,5.526,3.528,7.618,6.329
		c2.09,2.801,3.473,6.144,4.145,10.026c0.373,2.54,0.578,4.948,0.616,7.226c0.037,2.279-0.206,4.649-0.729,7.113
		c-0.747,3.512-2.26,7.002-4.537,10.475c-2.278,3.473-5.004,6.386-8.178,8.738c-3.175,2.353-6.647,3.901-10.418,4.648
		c-3.772,0.746-7.562,0.149-11.371-1.792c-1.719-0.822-3.268-1.775-4.648-2.856c-1.383-1.082-2.633-2.37-3.753-3.865
		c-1.271-1.642-2.26-3.36-2.969-5.153c-0.711-1.792-1.288-3.658-1.736-5.601c-0.523-2.091-0.711-4.201-0.561-6.33
		c0.149-2.128,0.41-4.201,0.784-6.217L1021.898,377.037z M1035.342,379.39c-0.225,1.196-0.412,2.372-0.561,3.529
		c-0.15,1.158-0.15,2.335,0,3.528c0.225,1.719,0.689,3.287,1.4,4.705c0.709,1.42,1.642,2.54,2.801,3.361
		c1.157,0.822,2.482,1.251,3.977,1.288c1.493,0.038,3.099-0.429,4.817-1.4c2.165-1.269,4.033-3.229,5.602-5.881
		c1.568-2.65,2.538-5.414,2.912-8.29c0.373-2.874,0.074-5.602-0.896-8.178c-0.972-2.577-2.876-4.426-5.714-5.546
		c-1.867,0-3.585,0.355-5.153,1.064c-1.568,0.711-2.932,1.644-4.089,2.801c-1.158,1.158-2.167,2.521-3.024,4.089
		C1036.555,376.029,1035.863,377.673,1035.342,379.39z"/>
	<path style="stroke:#000000;stroke-miterlimit:10;" d="M1103.482,396.866c0.82,0.747,1.512,1.699,2.072,2.856
		c0.561,1.159,0.857,2.315,0.896,3.473c0.036,1.157-0.225,2.24-0.784,3.249c-0.561,1.008-1.551,1.772-2.969,2.296
		c-1.12,0.373-2.353,0.448-3.697,0.225c-1.344-0.225-2.671-0.672-3.977-1.345c-1.308-0.672-2.465-1.476-3.473-2.408
		c-1.009-0.935-1.736-1.961-2.185-3.081c-0.15-0.372-0.263-0.802-0.336-1.288c-0.075-0.484-0.112-0.914-0.112-1.288V337.38
		c0-1.717,0.653-3.173,1.96-4.368c1.307-1.194,2.745-1.905,4.313-2.129c0.746-0.073,1.549,0.038,2.408,0.336
		c0.858,0.3,1.661,0.729,2.409,1.288c0.745,0.561,1.361,1.215,1.848,1.961c0.485,0.747,0.729,1.531,0.729,2.353
		c0,1.942,0,4.52,0,7.729c0,3.212,0.018,6.722,0.056,10.53c0.037,3.81,0.057,7.749,0.057,11.819c0,4.071-0.02,7.973-0.057,11.706
		c-0.038,3.735-0.056,7.152-0.056,10.251c0,3.1-0.038,5.583-0.112,7.449L1103.482,396.866z"/>
	<path style="stroke:#000000;stroke-miterlimit:10;" d="M1173.864,395.073c0.672,0.972,1.064,2.111,1.176,3.417
		c0.112,1.308-0.038,2.54-0.447,3.697c-0.412,1.158-1.084,2.108-2.017,2.856c-0.935,0.745-2.148,1.082-3.641,1.008
		c-1.943-0.15-3.512-0.822-4.705-2.017c-1.196-1.193-2.316-2.538-3.361-4.032c-2.912,2.391-5.92,4.05-9.018,4.984
		c-3.101,0.934-6.145,1.139-9.131,0.616c-2.987-0.523-5.788-1.774-8.401-3.752c-2.615-1.979-4.817-4.649-6.609-8.011
		c-1.644-3.137-2.56-6.609-2.745-10.418c-0.188-3.809-0.243-7.431-0.168-10.866c0-1.194,0.037-2.37,0.112-3.529
		c0.073-1.157,0.148-2.37,0.224-3.641c0.074-0.97,0.112-1.922,0.112-2.856s0.056-1.811,0.168-2.633
		c0.112-0.821,0.336-1.642,0.672-2.465c0.336-0.82,0.841-1.604,1.513-2.353c0.896-0.97,1.978-1.549,3.249-1.736
		c1.269-0.186,2.481-0.056,3.641,0.393c1.157,0.448,2.165,1.14,3.024,2.072c0.857,0.935,1.325,2.072,1.4,3.417
		c0.148,3.809,0.056,7.656-0.28,11.538c-0.336,3.885-0.318,7.693,0.057,11.427c0.148,1.793,0.616,3.623,1.4,5.489
		c0.784,1.868,2.033,3.212,3.753,4.033c1.717,0.747,3.453,0.691,5.209-0.168c1.754-0.857,3.192-1.886,4.312-3.081
		c0.521-0.597,1.026-1.25,1.513-1.96c0.484-0.709,1.025-1.325,1.624-1.849c-0.299-2.613-0.486-5.227-0.56-7.842
		c-0.075-2.613-0.075-5.227,0-7.842c0-1.418,0.056-2.969,0.168-4.649c0.111-1.68,0.409-3.285,0.896-4.816
		c0.485-1.53,1.214-2.875,2.185-4.033c0.97-1.157,2.353-1.886,4.146-2.185c0.82-0.148,1.624-0.073,2.408,0.224
		c0.784,0.3,1.474,0.711,2.072,1.232c1.045,0.896,1.754,1.904,2.129,3.024c0.373,1.121,0.561,2.316,0.561,3.585
		c0,1.271-0.095,2.56-0.28,3.865c-0.188,1.308-0.318,2.521-0.393,3.641c-0.15,2.092-0.263,4.296-0.336,6.609
		c-0.075,2.316,0,4.632,0.225,6.946c0.224,2.315,0.652,4.556,1.288,6.721C1171.642,391.303,1172.594,393.281,1173.864,395.073z"/>
	<path style="stroke:#000000;stroke-miterlimit:10;" d="M1195.066,366.507c-1.495-0.373-2.783-1.008-3.865-1.904
		c-1.083-0.896-1.831-1.941-2.24-3.137c-0.411-1.193-0.411-2.426,0-3.697c0.409-1.269,1.325-2.426,2.744-3.473
		c1.194-0.896,2.538-1.344,4.033-1.344c1.493,0,2.949,0,4.369,0c0-0.521-0.039-1.661-0.112-3.417
		c-0.075-1.754-0.095-3.678-0.056-5.77c0.036-2.09,0.168-4.089,0.392-5.993c0.225-1.904,0.634-3.229,1.232-3.977
		c1.493-2.091,3.342-3.081,5.545-2.969c2.202,0.111,4.014,1.176,5.434,3.192c0.298,0.375,0.578,0.822,0.84,1.345
		s0.393,1.008,0.393,1.456c0.073,2.688,0.093,5.377,0.056,8.065c-0.038,2.688-0.056,5.378-0.056,8.066h8.85
		c1.345,0,2.502,0.448,3.474,1.344c0.97,0.896,1.661,1.943,2.072,3.137c0.409,1.196,0.521,2.428,0.336,3.697
		c-0.188,1.271-0.767,2.315-1.736,3.137c-1.719,1.42-3.716,2.167-5.993,2.24c-2.279,0.075-4.612,0.112-7.002,0.112
		c0,4.108-0.02,8.216-0.056,12.322c-0.039,4.108-0.02,8.217,0.056,12.323c0,1.792,0.093,3.623,0.28,5.489
		c0.186,1.868,0.056,3.66-0.393,5.377c-0.374,1.345-1.008,2.409-1.904,3.193s-1.904,1.269-3.024,1.456
		c-1.12,0.186-2.279,0.112-3.473-0.225c-1.196-0.336-2.316-0.952-3.361-1.848c-0.523-0.523-0.915-1.418-1.176-2.688
		c-0.263-1.27-0.431-2.613-0.504-4.033c-0.076-1.642-0.076-3.397,0-5.266c0-1.493,0-3.434,0-5.825c0-2.389-0.02-4.873-0.057-7.449
		c-0.038-2.577-0.056-5.022-0.056-7.338c0-2.314,0-4.146,0-5.489L1195.066,366.507z"/>
	<path style="stroke:#000000;stroke-miterlimit:10;" d="M1247.636,336.933c0.298-2.763,1.25-4.798,2.856-6.105
		c1.605-1.306,3.306-1.941,5.098-1.904c1.792,0.038,3.453,0.728,4.985,2.072c1.529,1.344,2.333,3.248,2.408,5.713
		c0.148,2.54-0.504,4.5-1.96,5.882c-1.457,1.383-3.119,2.167-4.985,2.353c-1.868,0.187-3.623-0.317-5.266-1.513
		c-1.644-1.193-2.651-3.099-3.024-5.713L1247.636,336.933z M1262.424,400.675c-0.151,1.495-0.673,2.82-1.568,3.977
		c-0.896,1.157-1.924,1.997-3.081,2.521c-1.159,0.522-2.408,0.634-3.753,0.337c-1.345-0.3-2.54-1.121-3.585-2.465
		c-0.599-0.748-1.027-1.586-1.288-2.521c-0.263-0.934-0.431-1.904-0.504-2.913c-0.075-1.008-0.095-2.017-0.057-3.024
		c0.037-1.008,0.057-1.922,0.057-2.745c-0.075-4.405-0.095-8.774-0.057-13.106c0.037-4.331,0.018-8.699-0.056-13.107
		c0-1.792-0.112-3.602-0.336-5.433c-0.225-1.829-0.112-3.642,0.336-5.434c0.373-1.345,1.025-2.501,1.96-3.473
		c0.934-0.97,1.979-1.642,3.137-2.017c1.157-0.373,2.353-0.409,3.585-0.112c1.232,0.3,2.297,1.084,3.193,2.353
		c1.193,1.495,1.792,2.969,1.792,4.426c0,1.456,0,3.23,0,5.32c0,2.54,0,5.08,0,7.618c0,2.54,0.037,5.041,0.112,7.506
		c0.073,3.585,0.112,7.17,0.112,10.754c0,3.585,0,7.17,0,10.755v0.783H1262.424z"/>
	<path style="stroke:#000000;stroke-miterlimit:10;" d="M1284.409,377.037c0.521-2.165,1.25-4.293,2.185-6.385
		c0.933-2.091,2.072-4.089,3.417-5.994c1.344-1.904,2.856-3.641,4.537-5.209c1.68-1.568,3.49-2.837,5.433-3.809
		c3.435-1.793,6.89-2.706,10.362-2.745c3.473-0.036,6.702,0.655,9.69,2.073c2.986,1.419,5.526,3.528,7.618,6.329
		c2.09,2.801,3.473,6.144,4.145,10.026c0.373,2.54,0.578,4.948,0.616,7.226c0.037,2.279-0.206,4.649-0.729,7.113
		c-0.747,3.512-2.26,7.002-4.537,10.475c-2.278,3.473-5.004,6.386-8.178,8.738c-3.175,2.353-6.647,3.901-10.418,4.648
		c-3.772,0.746-7.562,0.149-11.371-1.792c-1.719-0.822-3.268-1.775-4.648-2.856c-1.383-1.082-2.633-2.37-3.753-3.865
		c-1.271-1.642-2.26-3.36-2.969-5.153c-0.711-1.792-1.288-3.658-1.736-5.601c-0.523-2.091-0.711-4.201-0.561-6.33
		c0.149-2.128,0.41-4.201,0.784-6.217L1284.409,377.037z M1297.853,379.39c-0.225,1.196-0.412,2.372-0.561,3.529
		c-0.15,1.158-0.15,2.335,0,3.528c0.225,1.719,0.689,3.287,1.4,4.705c0.709,1.42,1.642,2.54,2.801,3.361
		c1.157,0.822,2.482,1.251,3.977,1.288c1.493,0.038,3.099-0.429,4.817-1.4c2.165-1.269,4.033-3.229,5.602-5.881
		c1.568-2.65,2.538-5.414,2.912-8.29c0.373-2.874,0.074-5.602-0.896-8.178c-0.972-2.577-2.876-4.426-5.714-5.546
		c-1.867,0-3.585,0.355-5.153,1.064c-1.568,0.711-2.932,1.644-4.089,2.801c-1.158,1.158-2.167,2.521-3.024,4.089
		C1299.065,376.029,1298.374,377.673,1297.853,379.39z"/>
	<path style="stroke:#000000;stroke-miterlimit:10;" d="M1396.688,400.898c-0.224,1.868-0.915,3.397-2.072,4.594
		c-1.159,1.193-2.465,1.94-3.921,2.24c-1.456,0.298-2.856,0.112-4.201-0.561c-1.344-0.672-2.315-1.979-2.912-3.921
		c-0.673-2.09-0.936-4.274-0.784-6.553c0.148-2.277,0.224-4.387,0.224-6.33c0-4.032,0.018-8.046,0.056-12.042
		c0.037-3.995-0.131-8.011-0.504-12.043c-0.075-0.149-0.15-0.28-0.224-0.393c-0.075-0.111-0.225-0.28-0.448-0.504
		c-1.719-0.448-3.548-0.336-5.489,0.336c-1.943,0.672-3.585,1.532-4.93,2.577c-1.195,0.971-2.371,2.296-3.528,3.977
		c-1.159,1.681-1.736,3.305-1.736,4.873v15.46c0,1.195,0.036,2.503,0.112,3.921c0.073,1.419,0.017,2.8-0.169,4.145
		c-0.187,1.345-0.615,2.576-1.288,3.697c-0.672,1.12-1.756,1.94-3.248,2.464c-0.823,0.298-1.588,0.41-2.297,0.336
		c-0.711-0.075-1.476-0.262-2.297-0.56c-1.344-0.448-2.315-1.215-2.912-2.297c-0.599-1.081-1.009-2.24-1.232-3.473
		c-0.225-1.232-0.318-2.426-0.28-3.585c0.037-1.157,0.056-2.072,0.056-2.744c0-1.718-0.019-4.201-0.056-7.45
		c-0.038-3.248-0.056-6.665-0.056-10.25s0-7.002,0-10.25c0-3.249,0-5.731,0-7.45c0-1.642,0.484-3.006,1.456-4.089
		c0.97-1.082,2.109-1.792,3.417-2.129c1.306-0.336,2.688-0.261,4.145,0.225c1.456,0.486,2.67,1.476,3.641,2.969
		c2.986-1.941,6.273-3.249,9.858-3.921c3.585-0.673,6.963-0.561,10.139,0.336c3.174,0.896,5.825,2.576,7.954,5.041
		c2.128,2.465,3.229,5.864,3.305,10.194c0,0.15,0.036,0.599,0.111,1.345c0.074,0.747,0.112,1.792,0.112,3.137v28.678H1396.688z"/>
	<path style="stroke:#000000;stroke-miterlimit:10;" d="M1414.753,396.306c-0.448-1.269-0.636-2.521-0.561-3.753
		c0.074-1.232,0.393-2.353,0.952-3.36c0.561-1.009,1.362-1.793,2.409-2.353c1.045-0.561,2.313-0.765,3.809-0.616
		c0.821,0.075,1.568,0.299,2.24,0.672c0.673,0.375,1.289,0.823,1.849,1.345c0.561,0.523,1.12,1.083,1.681,1.68
		c0.56,0.599,1.138,1.121,1.736,1.568c1.269,0.972,2.613,1.681,4.033,2.129c1.418,0.448,2.912,0.784,4.48,1.008
		c1.045,0,1.886-0.261,2.521-0.784c0.634-0.521,1.064-1.156,1.289-1.904c0.224-0.745,0.279-1.549,0.168-2.408
		c-0.112-0.857-0.393-1.549-0.841-2.072c-1.271-1.27-2.819-2.09-4.648-2.465c-1.831-0.373-3.529-0.821-5.098-1.345
		c-2.24-0.745-4.444-1.697-6.609-2.856c-2.167-1.157-3.921-2.744-5.266-4.761c-1.419-2.09-2.26-4.313-2.521-6.666
		c-0.263-2.353-0.075-4.648,0.561-6.89c0.634-2.24,1.698-4.293,3.192-6.161c1.493-1.866,3.286-3.397,5.378-4.593
		c1.568-0.896,3.285-1.474,5.152-1.736c1.866-0.261,3.753-0.317,5.657-0.168c1.905,0.15,3.79,0.504,5.658,1.064
		c1.865,0.56,3.584,1.176,5.152,1.848c1.793,0.823,3.137,1.98,4.033,3.473c0.896,1.495,1.325,3.008,1.288,4.537
		c-0.038,1.532-0.56,2.857-1.568,3.978c-1.008,1.12-2.483,1.68-4.425,1.68c-1.195,0-2.279-0.204-3.249-0.615
		c-0.971-0.41-1.979-0.802-3.024-1.177c-1.344-0.521-2.801-0.877-4.369-1.064c-1.568-0.186-2.839-0.093-3.809,0.28
		c-0.3,0.075-0.636,0.318-1.008,0.729c-0.375,0.411-0.655,0.915-0.841,1.512c-0.188,0.599-0.224,1.196-0.112,1.793
		c0.112,0.599,0.505,1.083,1.177,1.456c1.792,0.972,3.697,1.719,5.713,2.24c2.017,0.523,3.995,1.12,5.938,1.793
		c1.941,0.672,3.753,1.531,5.434,2.576c1.681,1.047,3.081,2.54,4.201,4.481c1.642,2.839,2.481,5.808,2.521,8.906
		c0.036,3.1-0.58,5.993-1.849,8.682c-1.271,2.688-3.137,4.985-5.602,6.89c-2.464,1.904-5.34,3.042-8.626,3.417
		c-2.315,0.224-4.593,0.093-6.833-0.393c-2.241-0.486-4.408-1.271-6.498-2.353c-2.092-1.083-4.032-2.37-5.825-3.865
		c-1.792-1.492-3.36-3.061-4.705-4.705L1414.753,396.306z"/>
</g>
<line style="fill:none;stroke:#000000;stroke-width:5;stroke-miterlimit:10;" x1="446.159" y1="306.273" x2="1474.23" y2="302.001"/>
<g>
	<path style="fill:#ED1C24;" d="M99.377,252.82v-17.478l62.582-29.882v19.169l-41.721,19.169l41.721,19.733V282.7L99.377,252.82z"/>
	<path style="fill:#ED1C24;" d="M229.617,190.801h18.606L194.097,309.2h-18.041L229.617,190.801z"/>
	<path style="fill:#ED1C24;" d="M323.772,234.779v18.041l-62.582,29.882v-19.169l41.721-19.733l-41.721-19.169v-19.169
		L323.772,234.779z"/>
</g>
<linearGradient id="SVGID_1_" gradientUnits="userSpaceOnUse" x1="3.2548" y1="250.0005" x2="420.213" y2="250.0005" gradientTransform="matrix(1 0 0 -1 0 500)">
	<stop  offset="0" style="stop-color:#DA2128"/>
	<stop  offset="0.5225" style="stop-color:#ED6C30"/>
	<stop  offset="1" style="stop-color:#F05123"/>
</linearGradient>
<path style="fill:url(#SVGID_1_);" d="M395.375,308.073c5.638-18.606,9.021-37.775,9.021-58.072s-3.383-40.03-9.021-58.072
	l20.297-19.169c4.511-3.946,5.638-10.713,2.255-16.35l-21.989-38.339c-2.819-5.074-9.585-7.893-15.223-6.202l-26.499,7.893
	c-26.499-28.754-61.454-49.615-100.921-58.072l-6.765-27.063c-1.69-6.204-6.764-10.15-12.966-10.15h-44.541
	c-6.202,0-11.276,3.946-12.967,10.148l-6.765,27.063C129.824,70.145,94.868,91.006,68.37,119.76l-25.935-7.893
	c-5.638-1.691-12.404,0.563-15.223,6.202l-21.99,38.34c-2.819,5.074-2.255,11.84,2.255,16.35l20.297,19.169
	c-5.638,18.606-9.021,37.775-9.021,58.072s3.383,40.03,9.021,58.072L7.477,327.241c-4.511,3.946-5.638,10.713-2.255,16.35
	L27.21,381.93c2.819,5.074,9.585,7.893,15.223,6.202l26.499-7.893c26.499,28.754,61.454,49.615,100.921,58.072l6.765,27.063
	c1.691,6.202,6.765,10.148,12.967,10.148h44.541c6.202,0,11.276-3.946,12.967-10.148l6.765-27.063
	c39.467-8.457,74.423-29.318,100.921-58.072l26.499,7.893c5.638,1.691,12.404-0.563,15.223-6.202l21.989-38.339
	c2.819-5.074,2.255-11.84-2.255-16.35L395.375,308.073z M211.574,402.792c-84.571,0-152.791-68.221-152.791-152.791
	S127.003,97.21,211.574,97.21s152.791,68.221,152.791,152.791S296.145,402.792,211.574,402.792z"/>
<radialGradient id="SVGID_2_" cx="212.217" cy="249.356" r="145.83" gradientTransform="matrix(1 0 0 -1 0 500)" gradientUnits="userSpaceOnUse">
	<stop  offset="0.5744" style="stop-color:#000000;stop-opacity:0"/>
	<stop  offset="0.7977" style="stop-color:#000000;stop-opacity:0.6512"/>
	<stop  offset="1" style="stop-color:#000000;stop-opacity:0.95"/>
</radialGradient>
<path style="fill:url(#SVGID_2_);" d="M212.217,104.814c-80.718,0-145.83,65.112-145.83,145.83s65.112,145.83,145.83,145.83
	s145.83-65.112,145.83-145.83S292.934,104.814,212.217,104.814z M212.217,380.33c-71.57,0-129.686-58.117-129.686-129.686
	s58.117-129.686,129.686-129.686s129.686,58.117,129.686,129.686S283.786,380.33,212.217,380.33z"/>
</svg>
